<svg width="56" height="56" viewBox="0 0 56 56" fill="none" xmlns="http://www.w3.org/2000/svg">
<g clip-path="url(#clip0_1_258)">
<mask id="mask0_1_258" style="mask-type:alpha" maskUnits="userSpaceOnUse" x="0" y="0" width="56" height="56">
<path fill-rule="evenodd" clip-rule="evenodd" d="M32.6671 0H23.3338V16.7347L11.5004 4.90131L4.90076 11.501L16.733 23.3332H0V32.6665H16.7345L4.90175 44.4993L11.5014 51.0989L23.3338 39.2666V56H32.6671V39.2673L44.4987 51.0989L51.0984 44.4993L39.2656 32.6665H56V23.3332H39.2671L51.0994 11.501L44.4997 4.90131L32.6671 16.7339V0Z" fill="white"/>
</mask>
<g mask="url(#mask0_1_258)">
<path fill-rule="evenodd" clip-rule="evenodd" d="M32.6671 0H23.3338V16.7347L11.5004 4.90131L4.90076 11.501L16.733 23.3332H0V32.6665H16.7345L4.90175 44.4993L11.5014 51.0989L23.3338 39.2666V56H32.6671V39.2673L44.4987 51.0989L51.0984 44.4993L39.2656 32.6665H56V23.3332H39.2671L51.0994 11.501L44.4997 4.90131L32.6671 16.7339V0Z" fill="#CAB5EB"/>
<path d="M23.3338 1.72853e-05V-0.871094H22.4627V1.72853e-05H23.3338ZM32.6671 1.72853e-05H33.5382V-0.871094H32.6671V1.72853e-05ZM23.3338 16.7347L22.7178 17.3507L24.2049 18.8377V16.7347H23.3338ZM11.5004 4.90132L12.1164 4.28535L11.5004 3.66939L10.8845 4.28535L11.5004 4.90132ZM4.90076 11.501L4.28479 10.885L3.66882 11.501L4.28479 12.117L4.90076 11.501ZM16.733 23.3332V24.2043H18.836L17.349 22.7173L16.733 23.3332ZM2.02656e-06 23.3332V22.4621H-0.871109V23.3332H2.02656e-06ZM2.02656e-06 32.6666H-0.871109V33.5377H2.02656e-06V32.6666ZM16.7345 32.6666L17.3505 33.2826L18.8375 31.7954H16.7345V32.6666ZM4.90175 44.4993L4.28578 43.8834L3.66981 44.4993L4.28578 45.1153L4.90175 44.4993ZM11.5014 51.099L10.8855 51.715L11.5014 52.3309L12.1174 51.715L11.5014 51.099ZM23.3338 39.2666H24.2049V37.1635L22.7178 38.6506L23.3338 39.2666ZM23.3338 56H22.4627V56.8711H23.3338V56ZM32.6671 56V56.8711H33.5382V56H32.6671ZM32.6671 39.2673L33.2831 38.6514L31.796 37.1643V39.2673H32.6671ZM44.4987 51.099L43.8828 51.715L44.4987 52.3309L45.1147 51.715L44.4987 51.099ZM51.0984 44.4993L51.7144 45.1153L52.3303 44.4993L51.7144 43.8834L51.0984 44.4993ZM39.2656 32.6666V31.7954H37.1626L38.6497 33.2826L39.2656 32.6666ZM56 32.6666V33.5377H56.8711V32.6666H56ZM56 23.3332H56.8711V22.4621H56V23.3332ZM39.2671 23.3332L38.6512 22.7173L37.1641 24.2043H39.2671V23.3332ZM51.0994 11.501L51.7154 12.117L52.3313 11.501L51.7154 10.885L51.0994 11.501ZM44.4997 4.90132L45.1157 4.28535L44.4997 3.66939L43.8838 4.28535L44.4997 4.90132ZM32.6671 16.7339H31.796V18.837L33.2831 17.3499L32.6671 16.7339ZM23.3338 0.871128H32.6671V-0.871094H23.3338V0.871128ZM24.2049 16.7347V1.72853e-05H22.4627V16.7347H24.2049ZM10.8845 5.51729L22.7178 17.3507L23.9498 16.1187L12.1164 4.28535L10.8845 5.51729ZM5.51673 12.117L12.1164 5.51729L10.8845 4.28535L4.28479 10.885L5.51673 12.117ZM17.349 22.7173L5.51673 10.885L4.28479 12.117L16.117 23.9492L17.349 22.7173ZM2.02656e-06 24.2043H16.733V22.4621H2.02656e-06V24.2043ZM0.871113 32.6666V23.3332H-0.871109V32.6666H0.871113ZM16.7345 31.7954H2.02656e-06V33.5377H16.7345V31.7954ZM5.51772 45.1153L17.3505 33.2826L16.1185 32.0506L4.28578 43.8834L5.51772 45.1153ZM12.1174 50.483L5.51772 43.8834L4.28578 45.1153L10.8855 51.715L12.1174 50.483ZM22.7178 38.6506L10.8855 50.483L12.1174 51.715L23.9498 39.8825L22.7178 38.6506ZM24.2049 56V39.2666H22.4627V56H24.2049ZM32.6671 55.1289H23.3338V56.8711H32.6671V55.1289ZM31.796 39.2673V56H33.5382V39.2673H31.796ZM45.1147 50.483L33.2831 38.6514L32.0512 39.8833L43.8828 51.715L45.1147 50.483ZM50.4824 43.8834L43.8828 50.483L45.1147 51.715L51.7144 45.1153L50.4824 43.8834ZM38.6497 33.2826L50.4824 45.1153L51.7144 43.8834L39.8816 32.0506L38.6497 33.2826ZM56 31.7954H39.2656V33.5377H56V31.7954ZM55.1289 23.3332V32.6666H56.8711V23.3332H55.1289ZM39.2671 24.2043H56V22.4621H39.2671V24.2043ZM50.4834 10.885L38.6512 22.7173L39.8831 23.9492L51.7154 12.117L50.4834 10.885ZM43.8838 5.51729L50.4834 12.117L51.7154 10.885L45.1157 4.28535L43.8838 5.51729ZM33.2831 17.3499L45.1157 5.51729L43.8838 4.28535L32.0512 16.1179L33.2831 17.3499ZM31.796 1.72853e-05V16.7339H33.5382V1.72853e-05H31.796Z" fill="#111010"/>
</g>
</g>
<defs>
<clipPath id="clip0_1_258">
<rect width="56" height="56" fill="white"/>
</clipPath>
</defs>
</svg>
