<svg width="75" height="33" viewBox="0 0 75 33" fill="none" xmlns="http://www.w3.org/2000/svg">
<path d="M47.968 23.32C47.392 22.7653 46.8587 22.104 46.368 21.336C45.8773 20.5787 45.4827 19.7253 45.184 18.776C44.896 17.816 44.752 16.7813 44.752 15.672C44.752 14.5627 44.896 13.5333 45.184 12.584C45.4827 11.624 45.8773 10.7653 46.368 10.008C46.8587 9.24 47.392 8.57867 47.968 8.024H49.344V8.152C48.3627 9.112 47.5733 10.2373 46.976 11.528C46.3893 12.808 46.096 14.1893 46.096 15.672C46.096 17.1547 46.3947 18.5413 46.992 19.832C47.5893 21.112 48.3733 22.232 49.344 23.192V23.32H47.968Z" fill="#111010"/>
<path d="M61.608 23.32V23.192C62.5787 22.232 63.3627 21.112 63.96 19.832C64.568 18.5413 64.872 17.1547 64.872 15.672C64.872 14.1893 64.5733 12.808 63.976 11.528C63.3787 10.2373 62.5947 9.112 61.624 8.152V8.024H62.984C63.5707 8.57867 64.104 9.24 64.584 10.008C65.0747 10.7653 65.464 11.624 65.752 12.584C66.0507 13.5333 66.2 14.5627 66.2 15.672C66.2 16.7813 66.0507 17.816 65.752 18.776C65.464 19.7253 65.0747 20.5787 64.584 21.336C64.104 22.104 63.5707 22.7653 62.984 23.32H61.608Z" fill="#111010"/>
<path d="M55.5051 21.192C54.5131 21.192 53.6545 20.952 52.9291 20.472C52.2145 19.9813 51.6651 19.304 51.2811 18.44C50.8971 17.5653 50.7051 16.552 50.7051 15.4C50.7051 14.248 50.8971 13.24 51.2811 12.376C51.6651 11.5013 52.2145 10.824 52.9291 10.344C53.6545 9.85333 54.5131 9.608 55.5051 9.608C56.4971 9.608 57.3505 9.85333 58.0651 10.344C58.7798 10.824 59.3291 11.5013 59.7131 12.376C60.0971 13.24 60.2891 14.248 60.2891 15.4C60.2891 16.552 60.0971 17.5653 59.7131 18.44C59.3291 19.304 58.7798 19.9813 58.0651 20.472C57.3505 20.952 56.4971 21.192 55.5051 21.192ZM55.5051 20.008C56.1558 20.008 56.7371 19.8267 57.2491 19.464C57.7718 19.0907 58.1771 18.5627 58.4651 17.88C58.7638 17.1867 58.9131 16.36 58.9131 15.4C58.9131 14.44 58.7638 13.6187 58.4651 12.936C58.1771 12.2533 57.7718 11.7307 57.2491 11.368C56.7371 10.9947 56.1558 10.808 55.5051 10.808C54.8438 10.808 54.2571 10.9947 53.7451 11.368C53.2331 11.7307 52.8278 12.2533 52.5291 12.936C52.2305 13.6187 52.0811 14.44 52.0811 15.4C52.0811 16.36 52.2305 17.1867 52.5291 17.88C52.8278 18.5627 53.2331 19.0907 53.7451 19.464C54.2571 19.8267 54.8438 20.008 55.5051 20.008Z" fill="#111010"/>
<g clip-path="url(#clip0_1_24)">
<path d="M16.9563 28.1755C16.9563 30.1552 15.3357 31.7604 13.3365 31.7604C11.3379 31.7604 9.71716 30.1553 9.71716 28.1755C9.71716 26.1955 11.3378 24.5903 13.3365 24.5903C15.3356 24.5903 16.9563 26.1954 16.9563 28.1755Z" fill="#111010"/>
<path d="M33.3813 28.1755C33.3813 30.1552 31.7607 31.7604 29.7616 31.7604C27.7625 31.7604 26.1422 30.1553 26.1422 28.1755C26.1422 26.1955 27.7625 24.5903 29.7616 24.5903C31.7606 24.5903 33.3813 26.1954 33.3813 28.1755Z" fill="#111010"/>
<path d="M35.8014 3.29365C35.6318 3.08617 35.3767 2.96553 35.1073 2.96553H15.591C15.0982 2.96553 14.6983 3.36154 14.6983 3.8498C14.6983 4.33801 15.0981 4.73405 15.591 4.73405H34.003L32.0798 13.6373C31.7071 14.7082 30.6951 15.4244 29.5483 15.4244L9.66802 15.4246L7.53119 3.04516C7.23723 1.34115 5.75693 0.104168 4.01164 0.104168H2.23542C1.7425 0.104168 1.34265 0.500169 1.34265 0.988427C1.34265 1.47669 1.74246 1.87269 2.23542 1.87269H4.01164C4.88424 1.87269 5.62462 2.49101 5.77154 3.34306L8.47937 19.0307C8.84699 21.1607 10.6975 22.7068 12.8792 22.7068H32.2951C32.788 22.7068 33.1879 22.3108 33.1879 21.8226C33.1879 21.3343 32.7881 20.9383 32.2951 20.9383H12.8792C11.5701 20.9383 10.4598 20.0108 10.2393 18.7325L9.97337 17.1924H29.5484C31.4843 17.1924 33.1894 15.9677 33.791 14.1453C33.8009 14.1159 33.8089 14.086 33.8155 14.0556L35.9804 4.03432C36.0368 3.77347 35.9712 3.50125 35.8016 3.29347L35.8014 3.29365Z" fill="#111010"/>
</g>
<defs>
<clipPath id="clip0_1_24">
<rect width="35" height="32" fill="white" transform="translate(1)"/>
</clipPath>
</defs>
</svg>
